<svg width="25" height="25" viewBox="0 0 40 41" fill="none" xmlns="http://www.w3.org/2000/svg">
<g clip-path="url(#clip0_266_2179)">
<path d="M40 21.1336C40 19.7514 39.8875 18.3617 39.6476 17.002H20.4011V24.8319H31.4227C30.9653 27.3573 29.4958 29.5912 27.344 31.0108V36.0913H33.9194C37.7807 32.5499 40 27.3199 40 21.1336Z" fill="#4285F4"/>
<path d="M20.4011 41C25.9044 41 30.5454 39.1994 33.9269 36.0913L27.3514 31.0108C25.522 32.251 23.1602 32.9533 20.4086 32.9533C15.0853 32.9533 10.5717 29.3746 8.95219 24.563H2.16681V29.8004C5.63073 36.6666 12.686 41 20.4011 41Z" fill="#34A853"/>
<path d="M8.9447 24.5631C8.08997 22.0378 8.08997 19.3033 8.9447 16.778V11.5405H2.16682C-0.727278 17.286 -0.727278 24.0551 2.16682 29.8006L8.9447 24.5631Z" fill="#FBBC04"/>
<path d="M20.4011 8.38007C23.3102 8.33524 26.1218 9.42606 28.2287 11.4284L34.0543 5.62313C30.3655 2.17136 25.4695 0.273631 20.4011 0.333401C12.686 0.333401 5.63073 4.6668 2.16681 11.5405L8.94469 16.7779C10.5567 11.9589 15.0778 8.38007 20.4011 8.38007Z" fill="#EA4335"/>
</g>
<defs>
<clipPath id="clip0_266_2179">
<rect width="40" height="40.6667" fill="white" transform="translate(0 0.333496)"/>
</clipPath>
</defs>
</svg>
